# xmcd CD database file
#
# Track frame offsets:
#	150
#	19649
#	34955
#	54454
#
# Disc length: 927 seconds
#
# Revision: 0
# Processed by: cddbd v1.5.1PL2 Copyright (c) Steve Scherf et al.
# Submitted via: CDex 1.51
#
DISCID=2a039d04
DTITLE=Various Artist - 「姫様ご用心」 プロローグソング 新谷良子・宮崎羽衣
DYEAR=2006
DGENRE=Anime
TTITLE0=新谷良子 - 迷い姫ぱにっく
TTITLE1=宮崎羽衣 - クレヨン
TTITLE2=R・O・N - 迷い姫ぱにっく (off vocal)
TTITLE3=Various Artist - クレヨン (off vocal)
EXTD=YEAR: 2006
EXTT0=
EXTT1=
EXTT2=
EXTT3=
PLAYORDER=
